<svg aria-hidden="true" style="position: absolute; width: 0; height: 0; overflow: hidden;" version="1.1" xmlns="http://www.w3.org/2000/svg" xmlns:xlink="http://www.w3.org/1999/xlink">
<defs>
<symbol id="icon-reshot" viewBox="0 0 32 32">
<path d="M28.512 23.669c0.507 0.508 0.82 1.21 0.82 1.984 0 1.079-0.608 2.016-1.5 2.487l-0.015 0.007c-1.372 0.748-3.005 1.187-4.741 1.187-0.91 0-1.792-0.121-2.631-0.348l0.070 0.016c-6.515-1.64-15.879-11.004-17.519-17.519-0.21-0.768-0.331-1.65-0.331-2.561 0-1.736 0.44-3.369 1.214-4.794l-0.026 0.053c0.478-0.908 1.415-1.516 2.495-1.516 0.774 0 1.476 0.313 1.984 0.82l2.78 2.779c0.511 0.506 0.828 1.208 0.828 1.984 0 0.405-0.086 0.79-0.241 1.138l0.007-0.018c-0.262 0.605-0.611 1.122-1.039 1.564l0.001-0.001c-3.179 3.179 7.223 13.58 10.4 10.4 0.44-0.428 0.959-0.778 1.531-1.028l0.033-0.013c0.33-0.148 0.715-0.235 1.12-0.235 0.776 0 1.478 0.317 1.983 0.828l0 0z"></path>
</symbol>
<symbol id="icon-tablet" viewBox="0 0 32 32">
<path style="fill: #064a75" d="M5.797 4.377c0-0.093 0.075-0.168 0.168-0.168h21.283c0.093 0 0.168 0.075 0.168 0.168v14.445c0 0.093-0.075 0.168-0.168 0.168h-10.926v2.117h10.926c1.26 0 2.286-1.025 2.286-2.285v-14.445c0-1.26-1.025-2.285-2.286-2.285h-21.283c-1.26 0-2.286 1.025-2.286 2.285v4.636h2.117v-4.636z"></path>
<path style="fill: #064a75" d="M31.169 21.974h-14.846v3.008h13.5c1.202 0 2.177-0.974 2.177-2.177 0-0.459-0.372-0.831-0.831-0.831z"></path>
<path style="fill: #064a75" d="M11.726 11.131h-9.247c-1.367 0-2.479 1.112-2.479 2.479v13.818c0 1.367 1.112 2.479 2.479 2.479h9.247c1.367 0 2.479-1.112 2.479-2.479v-13.818c0-1.367-1.112-2.479-2.479-2.479zM2.117 13.61c0-0.2 0.162-0.362 0.362-0.362h9.247c0.2 0 0.362 0.162 0.362 0.362v12.834h-9.971v-12.834zM7.103 28.962c-0.334 0-0.616-0.196-0.758-0.474-0.060-0.117-0.102-0.245-0.102-0.386 0-0.475 0.385-0.86 0.86-0.86s0.86 0.385 0.86 0.86c0 0.141-0.042 0.269-0.102 0.386-0.143 0.278-0.424 0.474-0.758 0.474z"></path>
</symbol>
<symbol id="icon-user" viewBox="0 0 32 32">
<path style="fill: #064a75" d="M16 16c4.418 0 8-3.582 8-8s-3.582-8-8-8c-4.418 0-8 3.582-8 8v0c0 4.418 3.582 8 8 8v0zM16 2c3.314 0 6 2.686 6 6s-2.686 6-6 6c-3.314 0-6-2.686-6-6v0c0-3.314 2.686-6 6-6v0zM24 16c-4.418 0-8 3.582-8 8s3.582 8 8 8c4.418 0 8-3.582 8-8v0c0-4.418-3.582-8-8-8v0zM24 30c-0.011 0-0.024 0-0.037 0-3.314 0-6-2.686-6-6s2.686-6 6-6c1.83 0 3.469 0.819 4.57 2.111l0.007 0.008c-0.092 0.051-0.171 0.111-0.24 0.18l0-0-5.3 5.28-1.3-1.28c-0.179-0.179-0.427-0.29-0.7-0.29-0.547 0-0.99 0.443-0.99 0.99 0 0.273 0.111 0.521 0.29 0.7l2 2c0.176 0.187 0.424 0.303 0.7 0.303s0.524-0.116 0.7-0.303l0-0 5.88-5.86c0.26 0.639 0.414 1.381 0.42 2.158v0.002c0 3.314-2.686 6-6 6v0zM16 31c0 0.552-0.448 1-1 1v0h-12c-1.657 0-3-1.343-3-3v0c0.011-4.966 4.034-8.989 8.999-9h4.001c0.552 0 1 0.448 1 1s-0.448 1-1 1v0h-4c-3.866 0-7 3.134-7 7v0c0 0.552 0.448 1 1 1v0h12c0.552 0 1 0.448 1 1v0z"></path>
</symbol>
</defs>
</svg>